<svg width="767" height="616" viewBox="0 0 767 616" fill="none" xmlns="http://www.w3.org/2000/svg">
<rect width="408" height="36" rx="10" transform="translate(179 580)" fill="#AEAEAE"/>
<rect width="136" height="109" transform="translate(316 471)" fill="#949494"/>
<rect width="767" height="471" rx="15" fill="#AEAEAE"/>
<path d="M0 15C0 6.71573 6.71573 0 15 0H752C760.284 0 767 6.71573 767 15V402H0V15Z" fill="#181818"/>
<path d="M0 0H716V347H0L0 0Z" transform="translate(24.5 26)" fill="#F2994A"/>
<path d="M365.812 228.328H351.047L343.875 79.4062H372.984L365.812 228.328ZM341.344 270.094C341.344 257.344 346.969 250.969 358.219 250.969C363.656 250.969 367.828 252.609 370.734 255.891C373.734 259.172 375.234 263.906 375.234 270.094C375.234 276.094 373.734 280.781 370.734 284.156C367.734 287.438 363.562 289.078 358.219 289.078C353.344 289.078 349.312 287.625 346.125 284.719C342.938 281.719 341.344 276.844 341.344 270.094Z" transform="translate(25 26)" fill="#181818"/>
</svg>
